<?xml version="1.0" encoding="UTF-8"?>
<svg width="52px" height="52px" viewBox="0 0 52 52" version="1.1" xmlns="http://www.w3.org/2000/svg" xmlns:xlink="http://www.w3.org/1999/xlink">
    <!-- Generator: Sketch 52.5 (67469) - http://www.bohemiancoding.com/sketch -->
    <title>购物车</title>
    <desc>Created with Sketch.</desc>
    <g id="购物车" stroke="none" stroke-width="1" fill="none" fill-rule="evenodd">
        <g id="分组">
            <rect id="矩形" fill="#000000" opacity="0" x="0" y="0" width="52" height="52"></rect>
            <path d="M17.576,40.976 C18.2346667,40.976 18.8586667,41.0973333 19.448,41.34 C20.0373333,41.5826667 20.5486667,41.9206667 20.982,42.354 C21.4153333,42.7873333 21.762,43.2986667 22.022,43.888 C22.282,44.4773333 22.412,45.1013333 22.412,45.76 C22.412,46.4186667 22.282,47.0426667 22.022,47.632 C21.762,48.2213333 21.4153333,48.7326667 20.982,49.166 C20.5486667,49.5993333 20.0373333,49.946 19.448,50.206 C18.8586667,50.466 18.2346667,50.596 17.576,50.596 C16.8826667,50.596 16.2413333,50.466 15.652,50.206 C15.0626667,49.946 14.5513333,49.5993333 14.118,49.166 C13.6846667,48.7326667 13.338,48.2213333 13.078,47.632 C12.818,47.0426667 12.688,46.4186667 12.688,45.76 C12.688,45.1013333 12.818,44.4773333 13.078,43.888 C13.338,43.2986667 13.6846667,42.7873333 14.118,42.354 C14.5513333,41.9206667 15.0626667,41.5826667 15.652,41.34 C16.2413333,41.0973333 16.8826667,40.976 17.576,40.976 Z M39.208,41.08 C39.8666667,41.08 40.4993333,41.2013333 41.106,41.444 C41.7126667,41.6866667 42.2326667,42.0246667 42.666,42.458 C43.0993333,42.8913333 43.446,43.4026667 43.706,43.992 C43.966,44.5813333 44.096,45.2053333 44.096,45.864 C44.096,46.5226667 43.966,47.1466667 43.706,47.736 C43.446,48.3253333 43.0993333,48.8366667 42.666,49.27 C42.2326667,49.7033333 41.7126667,50.05 41.106,50.31 C40.4993333,50.57 39.8666667,50.7 39.208,50.7 C38.5493333,50.7 37.9253333,50.57 37.336,50.31 C36.7466667,50.05 36.2353333,49.7033333 35.802,49.27 C35.3686667,48.8366667 35.022,48.3253333 34.762,47.736 C34.502,47.1466667 34.372,46.5226667 34.372,45.864 C34.372,45.2053333 34.502,44.5813333 34.762,43.992 C35.022,43.4026667 35.3686667,42.8913333 35.802,42.458 C36.2353333,42.0246667 36.7466667,41.6866667 37.336,41.444 C37.9253333,41.2013333 38.5493333,41.08 39.208,41.08 Z M47.944,11.544 C48.9146667,11.544 49.6686667,11.674 50.206,11.934 C50.7433333,12.194 51.1246667,12.5146667 51.35,12.896 C51.5753333,13.2773333 51.6793333,13.6846667 51.662,14.118 C51.6446667,14.5513333 51.584,14.924 51.48,15.236 C51.376,15.548 51.1506667,16.1893333 50.804,17.16 C50.4573333,18.1306667 50.0846667,19.1966667 49.686,20.358 C49.2873333,21.5193333 48.8886667,22.672 48.49,23.816 C48.0913333,24.96 47.7706667,25.8613333 47.528,26.52 C47.0773333,27.9066667 46.514,28.8686667 45.838,29.406 C45.162,29.9433333 44.3213333,30.212 43.316,30.212 L41.496,30.212 L38.168,30.212 L33.8,30.212 L28.912,30.212 L16.016,30.212 L16.744,34.892 L43.004,34.892 C44.668,34.892 45.5,35.6026667 45.5,37.024 C45.5,37.7173333 45.3353333,38.3153333 45.006,38.818 C44.6766667,39.3206667 44.0266667,39.572 43.056,39.572 L40.56,39.572 L35.776,39.572 L29.744,39.572 L23.66,39.572 L18.616,39.572 L15.808,39.572 C15.1146667,39.572 14.534,39.416 14.066,39.104 C13.598,38.792 13.208,38.3846667 12.896,37.882 C12.584,37.3793333 12.3326667,36.8333333 12.142,36.244 C11.9513333,35.6546667 11.804,35.1 11.7,34.58 C11.6653333,34.372 11.57,33.8693333 11.414,33.072 C11.258,32.2746667 11.0673333,31.278 10.842,30.082 C10.6166667,28.886 10.3653333,27.5513333 10.088,26.078 C9.81066667,24.6046667 9.53333333,23.1226667 9.256,21.632 C8.59733333,18.1306667 7.852,14.2306667 7.02,9.932 L3.12,9.932 C2.6,9.932 2.16666667,9.802 1.82,9.542 C1.47333333,9.282 1.18733333,8.97 0.962,8.606 C0.736666667,8.242 0.580666667,7.852 0.494,7.436 C0.407333333,7.02 0.364,6.63866667 0.364,6.292 C0.364,5.59866667 0.598,5.02666667 1.066,4.576 C1.534,4.12533333 2.16666667,3.9 2.964,3.9 L4.056,3.9 L5.148,3.9 L6.448,3.9 L8.216,3.9 C8.90933333,3.9 9.464,4.004 9.88,4.212 C10.296,4.42 10.6253333,4.68 10.868,4.992 C11.1106667,5.304 11.284,5.63333333 11.388,5.98 C11.492,6.32666667 11.5786667,6.62133333 11.648,6.864 C11.7173333,7.14133333 11.7866667,7.53133333 11.856,8.034 C11.9253333,8.53666667 11.9946667,9.048 12.064,9.568 C12.168,10.192 12.272,10.8506667 12.376,11.544 L47.944,11.544 Z M44.044,9.88 L25.012,9.88 L31.876,3.016 C32.6733333,2.21866667 33.5486667,1.81133333 34.502,1.794 C35.4553333,1.77666667 36.3306667,2.16666667 37.128,2.964 L44.044,9.88 Z" id="形状" fill="#7C8594" fill-rule="nonzero"></path>
        </g>
    </g>
</svg>